<?xml version="1.0" standalone="no"?>
<svg version="1.0" xmlns="http://www.w3.org/2000/svg" width="160" height="160" viewBox="0 0 160 160">
<g transform="translate(0,160) scale(0.1,-0.1)" fill="#184970">
<path d="M855 1538 c-3 -7 -4 -164 -3 -348 l3 -335 345 0 345 0 0 345 0 345 -343 3 c-270 2 -344 0 -347 -10z"/>
<path d="M55 1237 c-3 -7 -4 -118 -3 -247 l3 -235 245 0 245 0 0 245 0 245 -243 3 c-191 2 -244 0 -247 -11z"/>
<path d="M55 537 c-3 -7 -4 -118 -3 -247 l3 -235 245 0 245 0 0 245 0 245 -243 3 c-191 2 -244 0 -247 -11z"/>
<path d="M755 537 c-3 -7 -4 -118 -3 -247 l3 -235 245 0 245 0 0 245 0 245 -243 3 c-191 2 -244 0 -247 -11z"/>
</g>
</svg>
